<svg width="16" height="16" viewBox="0 0 16 16" fill="none" xmlns="http://www.w3.org/2000/svg">
<rect x="0.2" y="0.2" width="15.6" height="15.6" rx="7.8" fill="white"/>
<path fill-rule="evenodd" clip-rule="evenodd" d="M7.10714 9.78571H3.22008C3.10666 9.78571 3.02197 9.68135 3.04534 9.57036L4.39872 3.14178C4.41612 3.05915 4.48902 3 4.57346 3H7.28149C7.75466 3 8.24086 3.07958 8.61378 3.37083C9.52511 4.08259 9.5561 5.0822 8.85646 5.97045C8.82367 6.01208 8.77293 6.03571 8.71993 6.03571H10.1978C10.2903 6.03571 10.3841 6.03474 10.4785 6.03376C11.3125 6.02509 12.1936 6.01593 12.678 6.67469C12.9869 7.09488 13.0051 7.73161 12.9269 8.24725C12.711 9.83992 12.0009 10.3469 10.1429 10.3214H8.71429L8 13H6.39286L7.10714 9.78571ZM5.32143 5.85714H7.04965C7.20489 5.85714 7.36218 5.82619 7.4869 5.73375C8.18601 5.21564 8.18822 4.15347 7.28571 4.07143H5.5L5.14286 5.85714H5.32143ZM8.98214 9.16071H10.7104C10.8656 9.16071 11.0229 9.12976 11.1476 9.03732C11.8467 8.51922 11.8489 7.45705 10.9464 7.375H9.16071L8.80357 9.16071H8.98214ZM5.51051 8.71429C4.9893 8.71429 4.59138 8.24862 4.67267 7.73378V7.73378C4.73777 7.32151 5.09312 7.01786 5.51051 7.01786H6.62431C6.87442 7.01786 7.14152 6.99989 7.3578 7.1255C7.46495 7.18772 7.51675 7.27036 7.54688 7.375L7.28571 8.71429H5.51051Z" fill="#374898"/>
<path d="M7.28571 8.71429L7.10714 9.78571M7.28571 8.71429H5.51051C4.9893 8.71429 4.59138 8.24862 4.67267 7.73378V7.73378C4.73777 7.32151 5.09312 7.01786 5.51051 7.01786H6.62431C6.87442 7.01786 7.14152 6.99989 7.3578 7.1255C7.46495 7.18772 7.51675 7.27036 7.54688 7.375M7.28571 8.71429L7.54688 7.375M7.10714 9.78571L6.39286 13H8L8.71429 10.3214H10.1429C12.0009 10.3469 12.711 9.83992 12.9269 8.24725M7.10714 9.78571H3.22008M7.79396 6.03571H7.82143H8.71993M7.79396 6.03571H8.71993M7.79396 6.03571L7.54688 7.375M3.22008 9.78571C3.10666 9.78571 3.02197 9.68135 3.04534 9.57036M3.22008 9.78571V9.78571C3.10666 9.78571 3.02197 9.68135 3.04534 9.57036V9.57036M3.04534 9.57036L4.39872 3.14178M4.39872 3.14178C4.41612 3.05915 4.48902 3 4.57346 3M4.39872 3.14178V3.14178C4.41612 3.05915 4.48902 3 4.57346 3V3M4.57346 3H7.28149M7.28149 3C7.75466 3 8.24086 3.07958 8.61378 3.37083M7.28149 3V3C7.75466 3 8.24086 3.07958 8.61378 3.37083V3.37083M8.61378 3.37083C9.52511 4.08259 9.5561 5.0822 8.85646 5.97045M8.85646 5.97045C8.82367 6.01208 8.77293 6.03571 8.71993 6.03571M8.85646 5.97045V5.97045C8.82367 6.01208 8.77293 6.03571 8.71993 6.03571V6.03571M8.71993 6.03571H10.1978M10.1978 6.03571C10.2903 6.03571 10.3841 6.03474 10.4785 6.03376C11.3125 6.02509 12.1936 6.01593 12.678 6.67469M10.1978 6.03571H10.2705C11.1325 6.03571 12.1674 5.98022 12.678 6.67469V6.67469M12.678 6.67469C12.9869 7.09488 13.0051 7.73161 12.9269 8.24725M12.678 6.67469C12.692 6.69377 12.7057 6.71348 12.719 6.73386C13.0048 7.17077 13.0052 7.73109 12.9269 8.24725V8.24725M5.32143 5.85714H7.04965C7.20489 5.85714 7.36218 5.82619 7.4869 5.73375C8.18601 5.21564 8.18822 4.15347 7.28571 4.07143H5.5L5.14286 5.85714H5.32143ZM8.98214 9.16071H10.7104C10.8656 9.16071 11.0229 9.12976 11.1476 9.03732C11.8467 8.51922 11.8489 7.45705 10.9464 7.375H9.16071L8.80357 9.16071H8.98214Z" stroke="white" stroke-width="0.1"/>
<rect x="0.2" y="0.2" width="15.6" height="15.6" rx="7.8" stroke="#374898" stroke-width="0.4"/>
</svg>
