<svg width="28" height="28" viewBox="0 0 28 28" fill="none" xmlns="http://www.w3.org/2000/svg">
<path d="M26.6631 8.36098H19.2014V3.33762C19.2014 2.6004 18.6017 2.00073 17.8645 2.00073H1.33688C0.599672 2.00073 0 2.6004 0 3.33762V14.2656C0 15.0028 0.599672 15.6025 1.33688 15.6025H2.362L1.39464 18.2794C1.22416 18.7511 1.34565 19.0743 1.47763 19.2622C1.64298 19.4979 1.91634 19.6386 2.20896 19.6386C2.42521 19.6386 2.64457 19.5638 2.86093 19.4164L8.21723 15.7644C8.32825 15.6888 8.60781 15.6025 8.74204 15.6025H8.7984V20.626C8.7984 21.3632 9.39807 21.9629 10.1353 21.9629H19.2575C19.3892 21.9629 19.6737 22.0506 19.7823 22.1247L25.1386 25.7767C25.3837 25.9439 25.604 25.9993 25.7882 25.9993C26.0676 25.9992 26.2646 25.8719 26.3407 25.813C26.4668 25.7151 26.8586 25.3415 26.605 24.6396L25.6377 21.9629H26.6629C27.4001 21.9629 27.9998 21.3632 27.9998 20.626V9.69786C28 8.96065 27.4002 8.36098 26.6631 8.36098ZM7.31371 14.4389L3.56467 16.9951L4.07749 15.5759C4.21525 15.1949 4.16904 14.7979 3.95086 14.4872C3.73279 14.1764 3.37526 13.9982 2.97013 13.9982H1.60426V3.60499H17.5971V13.9982H9.61518C9.61026 13.9981 9.60556 13.9975 9.60064 13.9975C9.59572 13.9975 9.59101 13.9981 9.58609 13.9982H8.74215C8.2891 13.9982 7.68836 14.1835 7.31371 14.4389ZM26.3957 20.3585H25.0299C24.6247 20.3585 24.2672 20.5368 24.049 20.8475C23.8308 21.1583 23.7848 21.5551 23.9224 21.9361L24.4352 23.3554L20.686 20.7991C20.3115 20.5438 19.7108 20.3586 19.2575 20.3586H10.4029V15.6025H17.8645C18.6017 15.6025 19.2014 15.0028 19.2014 14.2656V9.96524H26.3957V20.3585Z" fill="white"/>
</svg>
