<svg width="24" height="24" viewBox="0 0 24 24" fill="none" xmlns="http://www.w3.org/2000/svg">
<g clip-path="url(#clip0)">
<path d="M15.4646 0.138611C15.3545 0.0227052 15.2036 -0.046875 15.0473 -0.046875H5.68488C3.95728 -0.046875 2.53125 1.37348 2.53125 3.1009V20.8052C2.53125 22.5328 3.95728 23.9532 5.68488 23.9532H18.3921C20.1197 23.9532 21.5457 22.5328 21.5457 20.8052V6.74727C21.5457 6.59657 21.4761 6.45173 21.3776 6.3415L15.4646 0.138611ZM15.6327 1.99952L19.5921 6.15602H17.0182C16.253 6.15602 15.6327 5.54151 15.6327 4.77631V1.99952ZM18.3921 22.7937H5.68488C4.6009 22.7937 3.69068 21.8952 3.69068 20.8052V3.1009C3.69068 2.01691 4.59504 1.11255 5.68488 1.11255H14.4732V4.77631C14.4732 6.18495 15.6096 7.31544 17.0182 7.31544H20.3863V20.8052C20.3863 21.8952 19.4819 22.7937 18.3921 22.7937Z" fill="white"/>
<path d="M16.8092 18.7938H7.26721C6.94843 18.7938 6.6875 19.0546 6.6875 19.3735C6.6875 19.6923 6.94843 19.9533 7.26721 19.9533H16.8151C17.1339 19.9533 17.3948 19.6923 17.3948 19.3735C17.3948 19.0546 17.1339 18.7938 16.8092 18.7938Z" fill="white"/>
<path d="M11.6152 16.7126C11.7254 16.8285 11.8761 16.8981 12.0383 16.8981C12.2007 16.8981 12.3514 16.8285 12.4615 16.7126L15.8587 13.0662C16.0789 12.8342 16.0615 12.4633 15.8297 12.2488C15.5977 12.0286 15.2268 12.0458 15.0123 12.2778L12.618 14.8458V8.5155C12.618 8.19653 12.3571 7.93579 12.0383 7.93579C11.7195 7.93579 11.4586 8.19653 11.4586 8.5155V14.8458L9.07019 12.2778C8.84991 12.046 8.48461 12.0286 8.2528 12.2488C8.02099 12.4691 8.0036 12.8344 8.22387 13.0662L11.6152 16.7126Z" fill="white"/>
</g>
<defs>
<clipPath id="clip0">
<rect width="24" height="24" fill="white"/>
</clipPath>
</defs>
</svg>
