<svg width="30" height="30" viewBox="0 0 30 30" fill="none" xmlns="http://www.w3.org/2000/svg">
<path d="M14.9999 4.54944C11.3944 4.54944 8.46094 7.48277 8.46094 11.0883C8.46094 14.6939 11.3944 17.6272 14.9999 17.6272C18.6055 17.6272 21.5389 14.6939 21.5389 11.0883C21.5389 7.48277 18.6055 4.54944 14.9999 4.54944ZM14.9999 15.8683C12.3642 15.8683 10.2197 13.7239 10.2197 11.0882C10.2197 8.45245 12.3642 6.30824 14.9999 6.30824C17.6357 6.30824 19.7801 8.45257 19.7801 11.0883C19.7801 13.7241 17.6358 15.8683 14.9999 15.8683Z" fill="#374898"/>
<path d="M14.9998 0C8.88575 0 3.91162 4.97413 3.91162 11.0882C3.91162 14.6142 6.86875 19.8675 8.63142 22.685C9.79118 24.5387 11.0375 26.3029 12.1406 27.6525C13.9112 29.8186 14.545 29.9999 14.9999 29.9999C15.4617 29.9999 16.06 29.8185 17.8252 27.6512C18.9307 26.2935 20.1776 24.5304 21.3362 22.6864C23.1109 19.862 26.0881 14.5993 26.0881 11.0881C26.0881 4.97413 21.114 0 14.9998 0ZM20.1169 21.317C17.8426 25.0085 15.7547 27.503 14.9894 28.1398C14.2201 27.5226 12.166 25.0874 9.86001 21.3286C7.19753 16.9885 5.67054 13.256 5.67054 11.0882C5.67042 5.94393 9.85555 1.7588 14.9998 1.7588C20.1441 1.7588 24.3292 5.94393 24.3292 11.0882C24.3293 13.2435 22.7939 16.9717 20.1169 21.317Z" fill="#374898"/>
</svg>
