<svg width="30" height="30" viewBox="0 0 30 30" fill="none" xmlns="http://www.w3.org/2000/svg">
<path d="M8.90002 4.09715C10.3969 2.74782 12.7812 1.87599 14.9742 1.87599C17.1875 1.87599 19.5901 2.76408 21.0952 4.13855C21.275 4.30276 21.5016 4.38393 21.7275 4.38393C21.9818 4.38393 22.2354 4.28112 22.4204 4.07852C22.7697 3.69594 22.7428 3.10275 22.3603 2.75332C20.5287 1.08069 17.6296 0 14.9742 0C12.3433 0 9.46595 1.06131 7.64399 2.70379C7.25916 3.0506 7.2284 3.64379 7.57533 4.02849C7.92214 4.41332 8.51532 4.44396 8.90002 4.09715Z" fill="#374898"/>
<path d="M10.0529 5.97974C9.66793 6.32642 9.63704 6.91961 9.98385 7.30444C10.3305 7.68939 10.9236 7.72028 11.3085 7.37347C12.1261 6.63684 13.6719 6.10218 14.9841 6.10218C16.3074 6.10218 17.8642 6.64684 18.6858 7.39736C18.8656 7.56182 19.0922 7.64287 19.3182 7.64287C19.5725 7.64287 19.826 7.54006 20.011 7.33758C20.3604 6.95513 20.3336 6.36182 19.9511 6.01238C18.7816 4.94407 16.7855 4.2262 14.9841 4.2262C13.4983 4.22632 11.3975 4.76848 10.0529 5.97974Z" fill="#374898"/>
<path d="M26.5044 10.0282H3.49529C2.28853 10.0282 1.30664 11.0101 1.30664 12.2168V27.8114C1.30664 29.0182 2.28853 30.0001 3.49529 30.0001H26.5044C27.7111 30.0001 28.693 29.0182 28.693 27.8114V12.2168C28.693 11.01 27.7111 10.0282 26.5044 10.0282ZM26.5044 11.9042C26.543 11.9042 26.5799 11.9124 26.6143 11.9259L15.4217 20.5071C15.2126 20.6672 14.7868 20.6673 14.578 20.5069L3.38536 11.9258C3.41975 11.9123 3.45677 11.9041 3.49529 11.9041H26.5044V11.9042ZM26.5044 28.1241H3.49529C3.32583 28.1241 3.18263 27.9809 3.18263 27.8114V14.1345L13.4365 21.9957C13.8749 22.3319 14.4373 22.4999 14.9998 22.4999C15.5621 22.4999 16.1247 22.3318 16.563 21.9959L26.817 14.1345V27.8114C26.817 27.9809 26.674 28.1241 26.5044 28.1241Z" fill="#374898"/>
</svg>
