<svg width="27" height="27" viewBox="0 0 27 27" fill="none" xmlns="http://www.w3.org/2000/svg">
<g clip-path="url(#clip0)">
<path d="M21.0938 10.125H20.25V6.75C20.25 3.02737 17.2226 0 13.5 0C9.77738 0 6.75 3.02737 6.75 6.75V10.125H5.90625C4.51125 10.125 3.375 11.2601 3.375 12.6562V24.4688C3.375 25.8649 4.51125 27 5.90625 27H21.0938C22.4888 27 23.625 25.8649 23.625 24.4688V12.6562C23.625 11.2601 22.4888 10.125 21.0938 10.125ZM9 6.75C9 4.26825 11.0182 2.25 13.5 2.25C15.9818 2.25 18 4.26825 18 6.75V10.125H9V6.75ZM14.625 18.8123V21.375C14.625 21.996 14.1221 22.5 13.5 22.5C12.8779 22.5 12.375 21.996 12.375 21.375V18.8123C11.7056 18.4219 11.25 17.7041 11.25 16.875C11.25 15.6341 12.2591 14.625 13.5 14.625C14.7409 14.625 15.75 15.6341 15.75 16.875C15.75 17.7041 15.2944 18.4219 14.625 18.8123Z" fill="#686DE0"/>
</g>
<defs>
<clipPath id="clip0">
<rect width="27" height="27" fill="white"/>
</clipPath>
</defs>
</svg>
