<svg width="26" height="26" viewBox="0 0 26 26" fill="none" xmlns="http://www.w3.org/2000/svg">
<g clip-path="url(#clip0)">
<path d="M18.9661 15.4992L18.9563 15.5805C16.5741 14.3931 16.3249 14.235 16.0172 14.6965C15.8038 15.0161 15.182 15.7408 14.9946 15.9553C14.805 16.1666 14.6165 16.1828 14.2947 16.0366C13.9697 15.8741 12.9265 15.5328 11.6915 14.4278C10.7295 13.5666 10.0838 12.5103 9.89315 12.1853C9.57573 11.6371 10.2398 11.5591 10.8443 10.4151C10.9526 10.1876 10.8974 10.0089 10.8172 9.84748C10.736 9.68498 10.0892 8.09248 9.8184 7.45765C9.5584 6.82498 9.29082 6.90515 9.0904 6.90515C8.4664 6.85098 8.01032 6.85965 7.6084 7.27781C5.8599 9.19965 6.30082 11.1821 7.7969 13.2903C10.7371 17.1383 12.3036 17.8468 15.1679 18.8305C15.9414 19.0764 16.6466 19.0417 17.2046 18.9616C17.8264 18.863 19.1188 18.1805 19.3886 17.4167C19.6648 16.653 19.6648 16.0192 19.5836 15.873C19.5034 15.7267 19.2911 15.6455 18.9661 15.4992V15.4992Z" fill="#374898"/>
<path d="M22.23 3.7364C13.9003 -4.31602 0.114833 1.52423 0.109417 12.8841C0.109417 15.1547 0.704167 17.3691 1.83733 19.3245L0 26L6.86292 24.2103C15.4267 28.8361 25.9957 22.6936 26 12.8906C26 9.4499 24.6567 6.21181 22.2137 3.77865L22.23 3.7364ZM23.8355 12.8548C23.829 21.1239 14.7518 26.2881 7.5725 22.0675L7.1825 21.8356L3.12 22.8919L4.20875 18.9431L3.94983 18.5369C-0.517834 11.4248 4.615 2.12981 13.078 2.12981C15.9532 2.12981 18.6518 3.25106 20.6841 5.28231C22.7153 7.29623 23.8355 9.99481 23.8355 12.8548V12.8548Z" fill="#374898"/>
</g>
<defs>
<clipPath id="clip0">
<rect width="26" height="26" fill="white"/>
</clipPath>
</defs>
</svg>
