<svg width="18" height="19" viewBox="0 0 18 19" fill="none" xmlns="http://www.w3.org/2000/svg">
<path d="M0.5625 3.60755H9.12674C9.38486 4.78243 10.4341 5.66447 11.6853 5.66447C12.9366 5.66447 13.9858 4.78247 14.2439 3.60755H17.4375C17.7481 3.60755 18 3.35569 18 3.04505C18 2.73441 17.7481 2.48255 17.4375 2.48255H14.2437C13.9851 1.30826 12.9344 0.425659 11.6853 0.425659C10.4356 0.425659 9.38545 1.30812 9.12695 2.48255H0.5625C0.251859 2.48255 0 2.73441 0 3.04505C0 3.35569 0.251859 3.60755 0.5625 3.60755ZM10.191 3.04652L10.191 3.04048C10.1935 2.21898 10.8638 1.55069 11.6853 1.55069C12.5057 1.55069 13.1761 2.21807 13.1796 3.03918L13.1797 3.04744C13.1784 3.87034 12.5086 4.5395 11.6853 4.5395C10.8625 4.5395 10.1928 3.87101 10.191 3.0486L10.191 3.04652ZM17.4375 15.2612H14.2437C13.985 14.0869 12.9344 13.2043 11.6853 13.2043C10.4356 13.2043 9.38545 14.0868 9.12695 15.2612H0.5625C0.251859 15.2612 0 15.513 0 15.8237C0 16.1343 0.251859 16.3862 0.5625 16.3862H9.12674C9.38486 17.5611 10.4341 18.4431 11.6853 18.4431C12.9366 18.4431 13.9858 17.5611 14.2439 16.3862H17.4375C17.7481 16.3862 18 16.1343 18 15.8237C18 15.513 17.7481 15.2612 17.4375 15.2612ZM11.6853 17.3181C10.8625 17.3181 10.1928 16.6496 10.191 15.8272L10.191 15.8252L10.191 15.8191C10.1935 14.9976 10.8638 14.3293 11.6853 14.3293C12.5057 14.3293 13.1761 14.9967 13.1796 15.8177L13.1797 15.826C13.1785 16.649 12.5086 17.3181 11.6853 17.3181ZM17.4375 8.87188H8.87326C8.61514 7.69699 7.56594 6.81499 6.31466 6.81499C5.06338 6.81499 4.01418 7.69699 3.75606 8.87188H0.5625C0.251859 8.87188 0 9.12374 0 9.43438C0 9.74505 0.251859 9.99688 0.5625 9.99688H3.75634C4.01498 11.1711 5.06559 12.0538 6.31466 12.0538C7.56439 12.0538 8.61455 11.1713 8.87305 9.99688H17.4375C17.7481 9.99688 18 9.74505 18 9.43438C18 9.12374 17.7481 8.87188 17.4375 8.87188ZM7.80901 9.4329L7.80898 9.43895C7.80652 10.2604 7.13619 10.9287 6.31466 10.9287C5.49429 10.9287 4.82393 10.2614 4.82038 9.44028L4.82027 9.43206C4.8215 8.60905 5.49141 7.93999 6.31466 7.93999C7.13753 7.93999 7.80718 8.60845 7.80905 9.4309L7.80901 9.4329Z" fill="#374898"/>
</svg>
